<svg width="20" height="20" viewBox="0 0 20 20" fill="none" xmlns="http://www.w3.org/2000/svg">
<path d="M10.8333 11.6667H13.75C14.4391 11.6667 15 11.1059 15 10.4167V2.91675C15 2.22758 14.4391 1.66675 13.75 1.66675H2.91663C2.22746 1.66675 1.66663 2.22758 1.66663 2.91675V15.0001L6.11079 11.6667H10.8333ZM3.33329 11.5834L3.46163 11.5701L3.33329 11.6667V11.5834Z" fill="#565D6D"/>
<path d="M17.0833 6.66675H16.6666V11.6676C16.6666 12.5842 15.9225 13.3284 15.0083 13.3334H6.66663V13.7501C6.66663 14.4392 7.22746 15.0001 7.91663 15.0001H13.8891L18.3333 18.3334V7.91675C18.3333 7.22758 17.7725 6.66675 17.0833 6.66675Z" fill="#565D6D"/>
<path d="M7.21558 5.52069C7.28905 5.31183 7.43406 5.13572 7.62494 5.02354C7.81581 4.91136 8.04023 4.87035 8.25844 4.90778C8.47666 4.94521 8.67458 5.05866 8.81716 5.22804C8.95974 5.39741 9.03778 5.61179 9.03745 5.83319C9.03745 6.45819 8.09995 6.77069 8.09995 6.77069" stroke="#D9D9D9" stroke-width="0.833333" stroke-linecap="round" stroke-linejoin="round"/>
<path d="M8.125 8.02075H8.12844" stroke="#D9D9D9" stroke-width="0.833333" stroke-linecap="round" stroke-linejoin="round"/>
</svg>
