<svg width="30" height="30" viewBox="0 0 30 30" fill="none" xmlns="http://www.w3.org/2000/svg">
<path d="M15.8125 6.875H20.4375C24.3375 6.875 27.5 10.5125 27.5 15C27.5 19.4875 24.3375 23.125 20.4375 23.125H15.8125C19.7125 23.125 22.5 19.4875 22.5 15C22.5 10.5125 19.7125 6.875 15.8125 6.875Z" stroke="#754FB4" stroke-width="1.5" stroke-linecap="round" stroke-linejoin="round"/>
<path d="M9.5625 6.875C10.7 6.875 11.75 7.1875 12.65 7.7375C14.85 9.075 16.25 11.825 16.25 15C16.25 18.175 14.85 20.925 12.65 22.2625C11.75 22.8125 10.7 23.125 9.5625 23.125C7.6125 23.125 5.85 22.2125 4.575 20.75C3.2875 19.275 2.5 17.25 2.5 15C2.5 12.75 3.2875 10.725 4.5625 9.25C5.85 7.7875 7.6125 6.875 9.5625 6.875Z" stroke="#754FB4" stroke-width="1.5" stroke-linecap="round" stroke-linejoin="round"/>
<path d="M9.5625 6.875H15.8125C19.7125 6.875 22.5 10.5125 22.5 15C22.5 19.4875 19.7125 23.125 15.8125 23.125H9.5625C5.6625 23.125 2.5 19.4875 2.5 15C2.5 12.75 3.2875 10.725 4.5625 9.25C5.85 7.7875 7.6125 6.875 9.5625 6.875Z" stroke="#754FB4" stroke-width="1.5" stroke-linecap="round" stroke-linejoin="round"/>
</svg>
