<svg width="25" height="11" viewBox="0 0 25 11" fill="none" xmlns="http://www.w3.org/2000/svg">
<path d="M1.83592 10.7405L7.85414 10.4544C8.13857 10.4408 8.4066 10.3173 8.60164 10.1098C8.79668 9.9023 8.90346 9.62715 8.89944 9.34242L8.84671 5.57842C9.37866 5.21706 10.5566 4.59903 12.4029 4.5967C14.2523 4.59748 15.4326 5.21783 15.9591 5.57842L15.9087 9.34164C15.9044 9.62645 16.0111 9.90176 16.2062 10.1093C16.4013 10.3168 16.6694 10.4403 16.954 10.4536L22.9706 10.7398C23.2557 10.7535 23.5349 10.6555 23.7489 10.4667C23.9629 10.2779 24.0948 10.0131 24.1167 9.72859L24.3564 6.60278C24.3559 6.33416 24.2568 6.07506 24.078 5.87464C23.8957 5.66914 19.5253 0.855187 12.4021 0.853636C6.19004 0.854411 2.07166 4.51839 0.999992 5.59005C0.843353 5.74669 0.751849 5.8475 0.727811 5.87464C0.548817 6.07486 0.450212 6.33421 0.450977 6.60278L0.692138 9.72859C0.713041 10.0132 0.844364 10.2783 1.05807 10.4674C1.27177 10.6564 1.55092 10.7545 1.83592 10.7405Z" fill="#FFDAD2"/>
</svg>
