<svg width="14" height="17" viewBox="0 0 14 17" fill="none" xmlns="http://www.w3.org/2000/svg">
<path fill-rule="evenodd" clip-rule="evenodd" d="M0.764659 5.94135C0.5 6.51678 0.5 7.17141 0.5 8.48068V12.5696C0.5 14.3879 0.5 15.297 1.06487 15.8619C1.57335 16.3704 2.36081 16.4211 3.83929 16.4262V11.6054C3.83929 10.5206 4.71873 9.64111 5.80357 9.64111H8.69643C9.78127 9.64111 10.6607 10.5206 10.6607 11.6054V16.4262C12.1392 16.4211 12.9267 16.3704 13.4351 15.8619C14 15.297 14 14.3879 14 12.5696V8.48068C14 7.17141 14 6.51678 13.7353 5.94135C13.4707 5.36592 12.9736 4.93989 11.9796 4.08784L11.0153 3.2613C9.21852 1.72122 8.32014 0.951172 7.25 0.951172C6.17986 0.951172 5.28148 1.72122 3.48471 3.26131L2.52042 4.08784C1.52635 4.93989 1.02932 5.36592 0.764659 5.94135ZM8.66072 16.4268V11.6411H5.83929V16.4268H8.66072Z" fill="url(#paint0_linear_104_49)"/>
<defs>
<linearGradient id="paint0_linear_104_49" x1="14" y1="16.4268" x2="7.25" y2="16.4268" gradientUnits="userSpaceOnUse">
<stop stop-color="#BABEC1"/>
</linearGradient>
</defs>
</svg>
