<svg width="22" height="22" viewBox="0 0 22 22" fill="none" xmlns="http://www.w3.org/2000/svg">
<path d="M19.9339 3.9009C19.5208 3.9009 19.1245 4.06504 18.8323 4.35719C18.5402 4.64935 18.3761 5.0456 18.3761 5.45878V10.1324H17.3375V3.38161C17.3375 2.96844 17.1733 2.57219 16.8812 2.28003C16.589 1.98787 16.1928 1.82374 15.7796 1.82374C15.3664 1.82374 14.9702 1.98787 14.678 2.28003C14.3859 2.57219 14.2217 2.96844 14.2217 3.38161V10.1324H13.1831V2.34303C13.1831 1.92986 13.019 1.53361 12.7268 1.24145C12.4347 0.949289 12.0384 0.785156 11.6253 0.785156C11.2121 0.785156 10.8158 0.949289 10.5237 1.24145C10.2315 1.53361 10.0674 1.92986 10.0674 2.34303V10.1324H9.02881V4.4202C9.02881 4.00702 8.86468 3.61077 8.57252 3.31861C8.28036 3.02645 7.88411 2.86232 7.47094 2.86232C7.05776 2.86232 6.66151 3.02645 6.36935 3.31861C6.07719 3.61077 5.91306 4.00702 5.91306 4.4202V15.6473L3.60741 11.9084C3.3898 11.5558 3.04105 11.3041 2.63787 11.2087C2.23469 11.1132 1.81012 11.1819 1.45754 11.3995C1.10497 11.6171 0.853274 11.9658 0.757836 12.369C0.662398 12.7722 0.73103 13.1968 0.948635 13.5493L4.38634 19.0954C4.85157 19.8476 5.50122 20.4685 6.27369 20.8993C7.04616 21.3301 7.91586 21.5564 8.80032 21.5568H16.2989C17.6761 21.5568 18.997 21.0097 19.9708 20.0358C20.9447 19.062 21.4918 17.7411 21.4918 16.3639V5.45878C21.4918 5.0456 21.3277 4.64935 21.0355 4.35719C20.7434 4.06504 20.3471 3.9009 19.9339 3.9009Z" fill="#565D6D"/>
</svg>
