<svg width="38" height="38" viewBox="0 0 38 38" fill="none" xmlns="http://www.w3.org/2000/svg">
<path fill-rule="evenodd" clip-rule="evenodd" d="M8.45859 15.5995C8.04346 16.5021 8.04346 17.5289 8.04346 19.5826V25.9964C8.04346 28.8485 8.04346 30.2745 8.92949 31.1606C9.74686 31.9779 11.0238 32.0413 13.4558 32.0462V24.4839C13.4558 22.8785 14.7573 21.5771 16.3627 21.5771H20.9003C22.5057 21.5771 23.8072 22.8785 23.8072 24.4839V32.0462C26.239 32.0413 27.5158 31.9779 28.3331 31.1606C29.2192 30.2745 29.2192 28.8485 29.2192 25.9964V19.5826C29.2192 17.5289 29.2192 16.5021 28.804 15.5995C28.3889 14.6969 27.6093 14.0286 26.05 12.6921L24.5374 11.3956C21.7191 8.9799 20.3099 7.77203 18.6313 7.77203C16.9527 7.77203 15.5435 8.9799 12.7252 11.3956L11.2126 12.6921C9.65336 14.0286 8.87373 14.6969 8.45859 15.5995ZM21.0186 32.0466V24.4839C21.0186 24.4186 20.9657 24.3657 20.9003 24.3657H16.3627C16.2974 24.3657 16.2444 24.4186 16.2444 24.4839V32.0466H21.0186Z" fill="url(#paint0_linear_129_513)"/>
<defs>
<linearGradient id="paint0_linear_129_513" x1="29.2192" y1="32.0466" x2="18.6313" y2="32.0466" gradientUnits="userSpaceOnUse">
<stop stop-color="#B500FF"/>
<stop offset="0.494791" stop-color="#A300FF"/>
<stop offset="1" stop-color="#8900FF"/>
</linearGradient>
</defs>
</svg>
