<svg width="37" height="36" viewBox="0 0 37 36" fill="none" xmlns="http://www.w3.org/2000/svg">
<path d="M11.5857 35.4094C11.1051 35.4094 10.6073 35.2892 10.1611 35.0489C9.18273 34.534 8.58202 33.5041 8.58202 32.4056V29.9685C3.39848 29.4364 0 25.6258 0 20.1677V9.86932C0 3.96489 3.96489 0 9.86932 0H27.0334C32.9378 0 36.9027 3.96489 36.9027 9.86932V20.1677C36.9027 26.0721 32.9378 30.037 27.0334 30.037H20.5625L13.2506 34.9118C12.7528 35.2379 12.1693 35.4094 11.5857 35.4094ZM9.86932 2.55743C5.441 2.55743 2.57461 5.42382 2.57461 9.85214V20.1507C2.57461 24.579 5.441 27.4454 9.86932 27.4454C10.573 27.4454 11.1566 28.029 11.1566 28.7327V32.3886C11.1566 32.6118 11.2939 32.7148 11.3798 32.7663C11.4656 32.8178 11.6372 32.8692 11.826 32.7491L19.464 27.6685C19.67 27.5312 19.9275 27.4454 20.1849 27.4454H27.0505C31.4789 27.4454 34.3452 24.579 34.3452 20.1507V9.85214C34.3452 5.42382 31.4789 2.55743 27.0505 2.55743H9.86932Z" fill="#A042FF"/>
<path d="M18.4509 17.8849C17.7472 17.8849 17.1636 17.3013 17.1636 16.5976V16.2371C17.1636 14.2461 18.6226 13.2677 19.1718 12.8901C19.8069 12.461 20.0128 12.1692 20.0128 11.723C20.0128 10.8648 19.3091 10.161 18.4509 10.161C17.5927 10.161 16.889 10.8648 16.889 11.723C16.889 12.4267 16.3054 13.0103 15.6017 13.0103C14.898 13.0103 14.3145 12.4267 14.3145 11.723C14.3145 9.44015 16.1681 7.58636 18.4509 7.58636C20.7337 7.58636 22.5875 9.44015 22.5875 11.723C22.5875 13.6797 21.1457 14.658 20.6136 15.0185C19.9442 15.4647 19.7382 15.7565 19.7382 16.2371V16.5976C19.7382 17.3184 19.1546 17.8849 18.4509 17.8849Z" fill="#A042FF"/>
<path d="M18.4514 22.1591C17.7305 22.1591 17.1641 21.5755 17.1641 20.8718C17.1641 20.1681 17.7476 19.5845 18.4514 19.5845C19.1551 19.5845 19.7387 20.1681 19.7387 20.8718C19.7387 21.5755 19.1723 22.1591 18.4514 22.1591Z" fill="#A042FF"/>
</svg>
