<svg width="21" height="14" viewBox="0 0 21 14" fill="none" xmlns="http://www.w3.org/2000/svg">
<path d="M3.32399 0.0175887C3.21544 0.0183535 3.10722 0.0606222 3.02816 0.145058C1.39492 1.88761 0.398193 4.21243 0.398193 6.76548C0.398193 9.31853 1.39492 11.6433 3.02816 13.3859C3.18628 13.5548 3.4595 13.5542 3.6247 13.3923L4.51057 12.5239C4.66994 12.3677 4.66893 12.119 4.51788 11.9551C3.25081 10.5804 2.47876 8.75971 2.47876 6.76548C2.47876 4.77125 3.25081 2.95052 4.51788 1.5759C4.66893 1.41192 4.66994 1.1637 4.51057 1.00707L3.6247 0.138684C3.5421 0.0577159 3.43255 0.0168238 3.32399 0.0175887ZM17.4458 0.0175887C17.3372 0.0169258 17.2277 0.0577159 17.1451 0.138684L16.2585 1.00786C16.0991 1.16409 16.1001 1.41192 16.2511 1.5759C17.5186 2.95012 18.2911 4.77125 18.2911 6.76548C18.2911 8.75971 17.519 10.5804 16.252 11.9551C16.1009 12.119 16.0999 12.3673 16.2593 12.5239L17.1451 13.3923C17.3103 13.5542 17.5836 13.5544 17.7417 13.3859C19.3749 11.6433 20.3716 9.31853 20.3716 6.76548C20.3716 4.21243 19.3749 1.88761 17.7417 0.145058C17.6626 0.0606222 17.5545 0.0182515 17.4458 0.0175887ZM14.8061 2.62035C14.6938 2.61489 14.5792 2.65401 14.4924 2.73905L13.6057 3.60823C13.4564 3.75467 13.44 3.9905 13.5757 4.14918C14.1815 4.85811 14.5461 5.77061 14.5461 6.76548C14.5461 7.76035 14.1815 8.67246 13.5757 9.38099C13.44 9.53966 13.4564 9.7755 13.6057 9.92193L14.4924 10.7919C14.6659 10.962 14.9487 10.9467 15.1093 10.7648C16.0547 9.69245 16.6266 8.29429 16.6266 6.76548C16.6266 5.23667 16.0547 3.83851 15.1093 2.76614C15.029 2.67518 14.9184 2.6258 14.8061 2.62035ZM5.96371 2.62114C5.85141 2.6266 5.74088 2.67597 5.66057 2.76694C4.71516 3.8389 4.14322 5.23667 4.14322 6.76548C4.14322 8.29429 4.71516 9.69245 5.66057 10.7648C5.82119 10.9467 6.1039 10.962 6.27742 10.7919L7.1641 9.92273C7.31349 9.77629 7.32983 9.54046 7.19417 9.38178C6.58831 8.67285 6.22378 7.76035 6.22378 6.76548C6.22378 5.77061 6.58831 4.8585 7.19417 4.14998C7.32983 3.9913 7.31349 3.75546 7.1641 3.60903L6.27742 2.73905C6.19066 2.65401 6.07601 2.61569 5.96371 2.62114ZM10.3849 4.31807C9.00592 4.31807 7.88824 5.4137 7.88824 6.76548C7.88824 8.11726 9.00592 9.21289 10.3849 9.21289C11.7639 9.21289 12.8816 8.11726 12.8816 6.76548C12.8816 5.4137 11.7639 4.31807 10.3849 4.31807Z" fill="black"/>
</svg>
