<svg width="20" height="20" viewBox="0 0 20 20" fill="none" xmlns="http://www.w3.org/2000/svg">
<path d="M16.4272 2.18237H3.64198C2.76059 2.18237 2.04382 2.89914 2.04382 3.78053V18.1639L5.24013 14.9676H16.4272C17.3086 14.9676 18.0253 14.2508 18.0253 13.3694V3.78053C18.0253 2.89914 17.3086 2.18237 16.4272 2.18237ZM7.63736 10.1731C7.42743 10.1731 7.21957 10.1317 7.02565 10.0513C6.83172 9.97092 6.65553 9.85312 6.50713 9.70465C6.35872 9.55617 6.24102 9.37992 6.16073 9.18595C6.08045 8.99199 6.03915 8.78411 6.0392 8.57418C6.03926 8.36426 6.08066 8.1564 6.16104 7.96247C6.24142 7.76855 6.35922 7.59236 6.50769 7.44395C6.65617 7.29555 6.83242 7.17785 7.02639 7.09756C7.22035 7.01727 7.42823 6.97598 7.63816 6.97603C8.06212 6.97614 8.46867 7.14466 8.76839 7.44452C9.0681 7.74438 9.23641 8.15102 9.23631 8.57498C9.2362 8.99894 9.06768 9.4055 8.76782 9.70521C8.46796 10.0049 8.06132 10.1732 7.63736 10.1731ZM12.4318 10.1731C12.2219 10.1731 12.014 10.1317 11.8201 10.0513C11.6262 9.97092 11.45 9.85312 11.3016 9.70465C11.1532 9.55617 11.0355 9.37992 10.9552 9.18595C10.8749 8.99199 10.8336 8.78411 10.8337 8.57418C10.8337 8.36426 10.8751 8.1564 10.9555 7.96247C11.0359 7.76855 11.1537 7.59236 11.3021 7.44395C11.4506 7.29555 11.6269 7.17785 11.8208 7.09756C12.0148 7.01727 12.2227 6.97598 12.4326 6.97603C12.8566 6.97614 13.2631 7.14466 13.5628 7.44452C13.8626 7.74438 14.0309 8.15102 14.0308 8.57498C14.0307 8.99894 13.8621 9.4055 13.5623 9.70521C13.2624 10.0049 12.8558 10.1732 12.4318 10.1731Z" fill="#565D6D"/>
</svg>
