<svg width="29" height="29" viewBox="0 0 29 29" fill="none" xmlns="http://www.w3.org/2000/svg">
<path d="M20.3828 0.182861H9.22851C4.61482 0.182861 0.862793 3.93488 0.862793 8.54858V26.6743C0.862793 27.0441 1.00969 27.3987 1.27117 27.6602C1.53265 27.9217 1.88729 28.0686 2.25708 28.0686H20.3828C24.9965 28.0686 28.7485 24.3166 28.7485 19.7029V8.54858C28.7485 3.93488 24.9965 0.182861 20.3828 0.182861ZM13.4114 14.8229C13.4114 15.3775 13.191 15.9095 12.7988 16.3017C12.4066 16.6939 11.8746 16.9143 11.3199 16.9143C11.2 16.9143 11.0857 16.899 10.9714 16.8794C10.8556 16.8934 10.7427 16.9143 10.6228 16.9143C10.0713 16.9143 9.53212 16.7507 9.07355 16.4443C8.61497 16.1379 8.25755 15.7024 8.04649 15.1929C7.83543 14.6833 7.7802 14.1226 7.8878 13.5817C7.9954 13.0408 8.26099 12.5439 8.65097 12.1539C9.04096 11.7639 9.53784 11.4983 10.0788 11.3907C10.6197 11.2831 11.1804 11.3384 11.6899 11.5494C12.1995 11.7605 12.635 12.1179 12.9414 12.5765C13.2478 13.035 13.4114 13.5742 13.4114 14.1257C13.4114 14.2442 13.3905 14.3586 13.3765 14.4743C13.3946 14.5886 13.4114 14.703 13.4114 14.8229ZM18.9885 16.9143C18.8686 16.9143 18.7557 16.8934 18.6399 16.8794C18.525 16.901 18.4083 16.9126 18.2914 16.9143C17.7367 16.9143 17.2047 16.6939 16.8125 16.3017C16.4203 15.9095 16.1999 15.3775 16.1999 14.8229C16.1999 14.7043 16.2167 14.5886 16.2348 14.4743C16.2208 14.3586 16.1999 14.2456 16.1999 14.1257C16.1999 13.5742 16.3635 13.035 16.6699 12.5765C16.9763 12.1179 17.4118 11.7605 17.9214 11.5494C18.4309 11.3384 18.9916 11.2831 19.5325 11.3907C20.0735 11.4983 20.5703 11.7639 20.9603 12.1539C21.3503 12.5439 21.6159 13.0408 21.7235 13.5817C21.8311 14.1226 21.7759 14.6833 21.5648 15.1929C21.3538 15.7024 20.9963 16.1379 20.5378 16.4443C20.0792 16.7507 19.54 16.9143 18.9885 16.9143Z" fill="#BABEC1"/>
</svg>
