<svg width="29" height="29" viewBox="0 0 29 29" fill="none" xmlns="http://www.w3.org/2000/svg">
<path d="M19.8056 0.765747H8.65136C4.03767 0.765747 0.285645 4.51777 0.285645 9.13146V27.2572C0.285645 27.627 0.432542 27.9816 0.694021 28.2431C0.955501 28.5046 1.31014 28.6515 1.67993 28.6515H19.8056C24.4193 28.6515 28.1714 24.8994 28.1714 20.2857V9.13146C28.1714 4.51777 24.4193 0.765747 19.8056 0.765747ZM12.8342 15.4057C12.8342 15.9604 12.6139 16.4924 12.2217 16.8846C11.8294 17.2768 11.2975 17.4972 10.7428 17.4972C10.6229 17.4972 10.5085 17.4818 10.3942 17.4623C10.2785 17.4763 10.1656 17.4972 10.0456 17.4972C9.49412 17.4972 8.95498 17.3336 8.4964 17.0272C8.03782 16.7208 7.6804 16.2853 7.46934 15.7757C7.25828 15.2662 7.20306 14.7055 7.31065 14.1646C7.41825 13.6237 7.68384 13.1268 8.07383 12.7368C8.46381 12.3468 8.96069 12.0812 9.50162 11.9736C10.0426 11.866 10.6032 11.9212 11.1128 12.1323C11.6223 12.3434 12.0578 12.7008 12.3643 13.1594C12.6707 13.6179 12.8342 14.1571 12.8342 14.7086C12.8342 14.8271 12.8133 14.9414 12.7994 15.0572C12.8175 15.1715 12.8342 15.2858 12.8342 15.4057ZM18.4114 17.4972C18.2915 17.4972 18.1785 17.4763 18.0628 17.4623C17.9478 17.4839 17.8312 17.4955 17.7142 17.4972C17.1595 17.4972 16.6276 17.2768 16.2354 16.8846C15.8431 16.4924 15.6228 15.9604 15.6228 15.4057C15.6228 15.2872 15.6395 15.1715 15.6576 15.0572C15.6437 14.9414 15.6228 14.8285 15.6228 14.7086C15.6228 14.1571 15.7863 13.6179 16.0927 13.1594C16.3992 12.7008 16.8347 12.3434 17.3442 12.1323C17.8538 11.9212 18.4145 11.866 18.9554 11.9736C19.4963 12.0812 19.9932 12.3468 20.3832 12.7368C20.7732 13.1268 21.0388 13.6237 21.1463 14.1646C21.2539 14.7055 21.1987 15.2662 20.9877 15.7757C20.7766 16.2853 20.4192 16.7208 19.9606 17.0272C19.502 17.3336 18.9629 17.4972 18.4114 17.4972Z" fill="url(#paint0_linear_129_504)"/>
<defs>
<linearGradient id="paint0_linear_129_504" x1="28.1714" y1="28.6515" x2="14.2285" y2="28.6515" gradientUnits="userSpaceOnUse">
<stop stop-color="#B500FF"/>
<stop offset="0.494791" stop-color="#A300FF"/>
<stop offset="1" stop-color="#8900FF"/>
</linearGradient>
</defs>
</svg>
