<svg width="30" height="30" viewBox="0 0 30 30" fill="none" xmlns="http://www.w3.org/2000/svg">
<path d="M15.0251 25.665C12.1126 25.665 9.20008 25.2025 6.43758 24.2775C5.38758 23.915 4.58758 23.1775 4.23758 22.215C3.87508 21.2525 4.00008 20.19 4.57508 19.24L6.01258 16.8525C6.31258 16.3525 6.58758 15.3525 6.58758 14.765V11.1525C6.58758 6.50247 10.3751 2.71497 15.0251 2.71497C19.6751 2.71497 23.4626 6.50247 23.4626 11.1525V14.765C23.4626 15.34 23.7376 16.3525 24.0376 16.865L25.4626 19.24C26.0001 20.14 26.1001 21.2275 25.7376 22.215C25.5606 22.6981 25.2762 23.1347 24.906 23.492C24.5357 23.8492 24.0892 24.1178 23.6001 24.2775C20.8501 25.2025 17.9376 25.665 15.0251 25.665ZM15.0251 4.58997C11.4126 4.58997 8.46258 7.52747 8.46258 11.1525V14.765C8.46258 15.6775 8.08758 17.0275 7.62508 17.815L6.18758 20.2025C5.91258 20.665 5.83758 21.1525 6.00008 21.565C6.15008 21.99 6.52508 22.315 7.03758 22.49C12.2231 24.2399 17.8396 24.2399 23.0251 22.49C23.4751 22.34 23.8251 22.0025 23.9876 21.5525C24.1501 21.1025 24.1126 20.615 23.8626 20.2025L22.4251 17.815C21.9501 17.0025 21.5876 15.665 21.5876 14.7525V11.1525C21.5876 7.52747 18.6501 4.58997 15.0251 4.58997Z" fill="#1F0E31"/>
<path d="M17.3499 4.925C17.2624 4.925 17.1749 4.9125 17.0874 4.8875C16.7249 4.7875 16.3749 4.7125 16.0374 4.6625C14.9749 4.525 13.9499 4.6 12.9874 4.8875C12.6374 5 12.2624 4.8875 12.0249 4.625C11.9066 4.49564 11.8273 4.33538 11.7963 4.16282C11.7654 3.99025 11.7839 3.81244 11.8499 3.65C12.0988 3.00754 12.5367 2.4557 13.1058 2.06737C13.6749 1.67904 14.3484 1.47249 15.0374 1.475C16.4624 1.475 17.7124 2.325 18.2249 3.65C18.3499 3.9875 18.2874 4.3625 18.0499 4.625C17.8624 4.825 17.5999 4.925 17.3499 4.925ZM15.0249 28.5112C13.7874 28.5112 12.5874 28.0112 11.7124 27.1362C10.8374 26.2612 10.3374 25.0612 10.3374 23.8237H12.2124C12.2124 24.5612 12.5124 25.2862 13.0374 25.8112C13.5624 26.3362 14.2874 26.6362 15.0249 26.6362C16.5749 26.6362 17.8374 25.3737 17.8374 23.8237H19.7124C19.7124 26.4112 17.6124 28.5112 15.0249 28.5112Z" fill="#1F0E31"/>
</svg>
