<svg width="24" height="17" viewBox="0 0 24 17" fill="none" xmlns="http://www.w3.org/2000/svg">
<path d="M15.549 7.23253H23.5397V9.5156H15.549V7.23253ZM16.6905 11.7987H23.5397V14.0817H16.6905V11.7987ZM14.4074 2.66638H23.5397V4.94945H14.4074V2.66638ZM2.99206 16.3648H14.4074V15.2233C14.4074 12.0761 11.847 9.5156 8.69975 9.5156H6.41667C3.26945 9.5156 0.708984 12.0761 0.708984 15.2233V16.3648H2.99206ZM7.55821 8.37406C9.83558 8.37406 11.5536 6.65605 11.5536 4.37868C11.5536 2.10131 9.83558 0.383301 7.55821 0.383301C5.28084 0.383301 3.56283 2.10131 3.56283 4.37868C3.56283 6.65605 5.28084 8.37406 7.55821 8.37406Z" fill="#565D6D"/>
</svg>
