<svg width="17" height="16" viewBox="0 0 17 16" fill="none" xmlns="http://www.w3.org/2000/svg">
<path d="M13.6212 7.3743C13.6212 6.60799 13.0778 5.96713 12.3578 5.8129C12.6455 5.33266 12.8221 4.7773 12.8221 4.17799C12.8221 2.41523 11.3885 0.981689 9.62578 0.981689C8.41438 0.981689 7.37078 1.6665 6.82901 2.66295C6.28724 1.6665 5.24364 0.981689 4.03224 0.981689C2.26948 0.981689 0.835938 2.41523 0.835938 4.17799C0.835938 4.89876 1.08525 5.5572 1.48878 6.09258C1.28704 6.24003 1.12282 6.43288 1.00941 6.65554C0.895999 6.8782 0.836572 7.12442 0.835938 7.3743V13.7669C0.835938 14.6483 1.55271 15.3651 2.43409 15.3651H12.023C12.9044 15.3651 13.6212 14.6483 13.6212 13.7669V11.6597L16.8175 13.2579V7.66436L13.6212 9.26252V7.3743ZM9.62578 2.57984C10.5072 2.57984 11.2239 3.29661 11.2239 4.17799C11.2239 5.05938 10.5072 5.77615 9.62578 5.77615C8.74439 5.77615 8.02762 5.05938 8.02762 4.17799C8.02762 3.29661 8.74439 2.57984 9.62578 2.57984ZM4.03224 2.57984C4.91362 2.57984 5.63039 3.29661 5.63039 4.17799C5.63039 5.05938 4.91362 5.77615 4.03224 5.77615C3.15086 5.77615 2.43409 5.05938 2.43409 4.17799C2.43409 3.29661 3.15086 2.57984 4.03224 2.57984Z" fill="#565D6D"/>
</svg>
