<svg width="24" height="24" viewBox="0 0 24 24" fill="none" xmlns="http://www.w3.org/2000/svg">
<path d="M17.4803 14.0317C17.0349 14.4701 16.7804 15.1011 16.844 15.7748C16.9394 16.9297 17.9893 17.7745 19.1347 17.7745H21.1496V19.0471C21.1496 21.2607 19.3574 23.068 17.1621 23.068H4.98751C2.79226 23.068 1 21.2607 1 19.0471V11.8501C1 9.63649 2.79226 7.82922 4.98751 7.82922H17.1621C19.3574 7.82922 21.1496 9.63649 21.1496 11.8501V13.39H19.0074C18.4135 13.39 17.8727 13.6253 17.4803 14.0317Z" stroke="#A042FF" stroke-width="1.5" stroke-linecap="round" stroke-linejoin="round"/>
<path d="M1 12.8126V7.92552C1 6.65295 1.77417 5.5194 2.95133 5.07026L11.3718 1.86209C11.6769 1.74615 12.0053 1.70661 12.3289 1.74684C12.6525 1.78707 12.9616 1.90589 13.2296 2.09308C13.4976 2.28027 13.7166 2.53026 13.8677 2.82157C14.0189 3.11289 14.0976 3.43683 14.0973 3.7656V7.82928M5.77228 12.3742H13.1958M22.2727 14.4809V16.6838C22.2727 17.272 21.8061 17.7532 21.2122 17.7746H19.1336C17.9883 17.7746 16.9384 16.9298 16.8429 15.7748C16.7793 15.1011 17.0338 14.4702 17.4792 14.0317C17.8716 13.6254 18.4125 13.3901 19.0064 13.3901H21.2122C21.8061 13.4115 22.2727 13.8927 22.2727 14.4809Z" stroke="#A042FF" stroke-width="1.5" stroke-linecap="round" stroke-linejoin="round"/>
</svg>
